<svg data-v-423bf9ae="" xmlns="http://www.w3.org/2000/svg" viewBox="0 0 125 90" class="iconLeft">
<g data-v-423bf9ae="" id="935f4d46-d183-4b8b-8c2e-2a4bbe72b9d9" transform="matrix(1.3167130927925728,0,0,1.3167130927925728,-1.835659662490471,-20.01134944051205)" stroke="none" fill="#b73225">
<path d="M94.815 62.516l-5.237-4.52-1.774.494-5.065-3.908-1.417-.859-.379-3.785-1.174-2.124-4.066-1.706-.665-2.778-1.467-1.225-.415-2.259-1.768-6.281-3.448-.701-1.407-6.836-2.221-2.706-2.013-2.91-1.753-3.332-3.561-1.257-2.562 4.412-1.55.446-2.151 2.89-.774 1.888-.528-.775-2.044.927-.459 2.105-2.828 1.398-2.041.165-.527 3.337-.492 1.447-1.084.997-.777.928-1.579 1.188-2.105-1.796-1.645-1.922-2.949-.481-1.834 1.483-1.011 1.567-.845-.365-2.215 1.062-1.048 3.036-1.19 1.734-2.09 4.26-.534 1.239-2.468-.017-1.085.814-1.62.295-6.225 11.722.058 1.252-6.136 8.684L2 72.82l3.879 1.674 1.242-.523 1.032 1.068 4.242 1.496 1.483-1.115 1.79-.326 3.941-1.764 4.68-.742 4.612.109 1.651 1.713 1.657.029 1.64 1.912 2.901-1.533 4.57 5.402 2.979 1.807 7.313 2.148 3.425-4.52 3.847-1.994 4.561-3.902-.058-3.809 2.848-.791 6.097 1.537 9.496.656 5.51-2.494 2.769.727 1.348-1.299 2.059.096 4.032-1.678.454-1.989-3.185-2.199zM33.02 58.033l2.622-.148 1.364-.738 1.024.711-.781.752-1.413 1.242-1.329-.238-1.134-.787-1.058-.113.705-.681zm56.232 1.424l.772.666.596 1.186-1.576 1.094-.033.023-.129 2.004-2.039.215-1.495-1.035-1.625-2.529-1.273-2.432-.098-1.416 1.052-.477 4.116 3.182 1.732-.481zM78.53 48.859l.47 1.353v.011l.148 1.232-.692 2.664.077.014.186 2.643-.883 1.311-1.773 1.9-.226-1.277.601-1.65-.946-.691-.726-2.188-.013-.035-1.488-.59-1.69-.494.377-1.299 1.307-.59-1.054-1.155 1.493-.762-.496-1.75 1.342-.582-.126.141 4.112 1.794zm-7.927-14.162l-.05.294-.748 1.643-.066 1.618-.963-.136-1.425-.092-.465 1.313-.017.039.02.035c.01.013.877 1.305.121 2.398l-1.197 1.726-.015.021.019 2.781-1.846-.119.311-1.065-1.579-.061-.916-1.454-.921-2.317.847-3.421.971-.017 1.009-.848c.239.035 1.465.159 2.242-.763l1.762-.936.303-.023v-1.199l2.603.583zM44.32 30.42l3.748-1.801.454-2.08.433-.196 1.313 1.884.075-.191 1.052.698.716-.603.701 2.095.02.059 1.262-.048 1.244-1.593.762-4.199.227-2.388.002-.042-.935-.823 2.185-3.764 2.044.722 1.553 2.939 2.086 3.021 1.703 2.079-1.3-.061-.529 1.817-1.736 3.332-.508 2.783-.572 1.214-2.206-.493-.017-.003-1.472.269-1.801 1.293-1.77.596.071-2.326-1.09.015-2.71 1.003-1.644 1.065.515-3.269.022-.14-1.788.673-.747-1.467-.033-.064-.952.343-1.521-2.209.009-.054 1.134-.086zM15.814 49.268l1.297-.235.979-.735 2.896.02.117-.272c.117.371.485 1.402 1.126 1.86l.487.886a2.258 2.258 0 0 0 1.192 1.487l.229 1.256 1.024 1.313.569-1.221.01-.021-.221-1.664-.631-3.463-.059-.008c-.13-.021-.492-.12-.607-.344-.062-.117-.051-.262.033-.427l.043-.087-1.147-.346-1.225-.111-.033-.002-.631.52.588-1.365 2.027-4.147 1.192-1.726.978-2.758 1.177-.563 1.341.577 1.403-2.275 1.287-1.042 1.891.31 1.402 1.626 2.982 2.558L40.015 37l.875-1.027 1.273-1.163.467-1.393 2.044 1.963-1.77 2.966-.873 2.48-1.317.9-1.499.938-1.288.708-.872-2.104-1.632-2.979-.187 2.127-.846 1.622-3.121 1.067-.021.007-1.536 1.8-1.46 3.148-.954 4.862-.859 3.473-1.799.986-.046.025.181 2.838-1.024 1.479-3.83.375-.183-1.895-.006-.059-2.553-.584-1.947 2.125-.292-1.619-.006-.033-1.924-1.33-.029-.02-2.465.553 5.298-9.968zm22.104 24.888l1.115-2.686 1.311-2.922 1.143-2.867 1.322-.9.032-.021.115-1.205 2.355-2.59 1.395-1.6 1.101-1.594-2.615 1.232-1.298 2.084-2.705 2.684-2.059 3.387-1.07 1.342-1.752.156-1.071-.607-.464-1.209-.378-2.086.69-1.742 3.456-.799-.523-1.951 2.715-2.309.022-.021.873-5.379.005-.027-.513-.939-.026-.047-1.583.125.61-1.841.01-.03-.885-2.143 3.146-1.725 1.767-1.327.739-1.254 1.288 1.022 1.668 1.856 1.756 3.197 3.128 3.305.018.018 2.618.529 4.157 1.748 2.079 2.285 2.278 1.436 4.181 4.59.023.025 4.761.307 4.581 1.332 1.326 1.314-2.027.838-2.398-1.379-.026-.016-4.186.93-3.172-1.916-.039-.023-1.846.84-2.575-2.34-1.553-1.215-1.872-2.004-2.938-1.326-2.436-1.398-2.723-.346-.631-1.676-.022-.059-1.711.139-.08.006.08 1.455 1.498.75 1.558 2.189 1.235 3.125 1.065 1.176.02.021 3.081.439.82 1.814 1.753 1.365.286 3.342-2.408.115-1.599.131-1.09-1.863-.114 2.475-.109 1.682-.766-1.854-.02-.051-1.786-.031-1.016 1.885-1.618 1.123-.04.029.318 2.688.787 2.5-.907 1.49-.796-3.488.273-2.293-3.547-.398-.727.832-.015.018-.252 1.379-1.451 1.268-.243.928-.54-.32-4.337-5.129z"></path>
<path d="M48.223 49.682l.005-.016-.241-1.316-2.248-3.013-.073 1.088.672 1.728.528 1.917.009.028 1.046.755zM49.917 53.732l-.934-1.246-1.623-.822.016 1.143.078 1.39 1.485.268zM48.579 69.293l1.127-.75 1.128-1.221.921-1.332 1.009-.847.074-.061-1.474-1.318-.057-.051-1.455 1.471-1.581.453-1.476.625.6 1.326zM48.427 71.5l.023.064c.252.705.916.811 1.29.811.161 0 .27-.02.274-.021l.034-.014c.898-.674 1.382-2.561 1.401-2.641l.057-.227-1.649 1.238-1.43.79z"></path>
</g>
</svg>